#N canvas -9 0 956 1003 12;
#X obj 205 267 osc~;
#X floatatom 204 229 5 0 0 0 - - - 0;
#X obj 205 346 *~;
#X floatatom 222 312 5 0 1 0 - - - 0;
#X obj 283 267 osc~;
#X floatatom 283 228 5 0 0 0 - - - 0;
#X floatatom 305 299 5 0 1 0 - - - 0;
#X obj 254 440 dac~;
#X obj 286 328 *~;
#X obj 254 400 *~;
#X floatatom 295 401 5 0 1 0 - - - 0;
#X floatatom 265 99 5 0 0 0 - - - 0;
#X obj 353 267 osc~;
#X floatatom 353 228 5 0 0 0 - - - 0;
#X floatatom 375 299 5 0 1 0 - - - 0;
#X obj 356 328 *~;
#X obj 426 267 osc~;
#X floatatom 426 228 5 0 0 0 - - - 0;
#X floatatom 448 299 5 0 1 0 - - - 0;
#X obj 429 328 *~;
#X obj 489 267 osc~;
#X floatatom 489 228 5 0 0 0 - - - 0;
#X floatatom 511 299 5 0 1 0 - - - 0;
#X obj 492 328 *~;
#X obj 205 188 * 1;
#X obj 283 188 * 2;
#X obj 353 188 * 3;
#X obj 426 188 * 4;
#X obj 489 188 * 5;
#X connect 0 0 2 0;
#X connect 1 0 0 0;
#X connect 2 0 9 0;
#X connect 3 0 2 1;
#X connect 4 0 8 0;
#X connect 5 0 4 0;
#X connect 6 0 8 1;
#X connect 8 0 9 0;
#X connect 9 0 7 0;
#X connect 9 0 7 1;
#X connect 10 0 9 1;
#X connect 11 0 24 0;
#X connect 11 0 25 0;
#X connect 11 0 26 0;
#X connect 11 0 27 0;
#X connect 11 0 28 0;
#X connect 12 0 15 0;
#X connect 13 0 12 0;
#X connect 14 0 15 1;
#X connect 15 0 9 0;
#X connect 16 0 19 0;
#X connect 17 0 16 0;
#X connect 18 0 19 1;
#X connect 19 0 9 0;
#X connect 20 0 23 0;
#X connect 21 0 20 0;
#X connect 22 0 23 1;
#X connect 23 0 9 0;
#X connect 24 0 1 0;
#X connect 25 0 5 0;
#X connect 26 0 13 0;
#X connect 27 0 17 0;
#X connect 28 0 21 0;
