#N canvas -9 0 956 1003 12;
#X obj 265 547 osc~;
#X obj 266 586 *~;
#X obj 352 732 dac~;
#X text 382 432 Fade In;
#X text 314 433 Fade Out;
#X obj 263 483 vline~;
#X obj 343 494 vline~;
#X obj 324 330 bng 15 250 50 0 empty empty empty 17 7 0 10 #fcfcfc
#000000 #000000;
#X obj 316 265 tgl 15 0 empty empty empty 17 7 0 10 #fcfcfc #000000
#000000 0 1;
#X obj 399 652 *~;
#X text 512 528 Fade In;
#X text 444 529 Fade Out;
#X obj 473 590 vline~;
#X msg 264 368 440;
#X obj 397 605 noise~;
#X msg 391 399 0.5 20 0 \, 0.2 10 200 \, 0 100 100;
#X msg 460 507 0.2 20 0 \, 0.1 10 200 \, 0 100 100;
#X msg 186 273 tempo \$1 permin;
#X msg 396 172 4;
#X msg 435 172 0.5;
#X msg 426 201 1 \$1;
#X msg 474 172 1;
#X obj 425 230 /;
#X floatatom 425 258 5 0 0 0 - - - 0;
#X floatatom 189 232 5 0 0 0 - - - 0;
#X obj 321 288 metro 1 120 permin;
#X msg 327 456 0 1200;
#X msg 457 552 0 1200;
#X msg 511 550 0.5 1500;
#X msg 381 454 0.5 1500;
#X connect 0 0 1 0;
#X connect 1 0 2 0;
#X connect 1 0 2 1;
#X connect 5 0 0 0;
#X connect 6 0 1 1;
#X connect 7 0 13 0;
#X connect 7 0 15 0;
#X connect 7 0 16 0;
#X connect 8 0 25 0;
#X connect 9 0 2 0;
#X connect 9 0 2 1;
#X connect 12 0 9 1;
#X connect 13 0 5 0;
#X connect 14 0 9 0;
#X connect 15 0 6 0;
#X connect 16 0 12 0;
#X connect 17 0 25 0;
#X connect 18 0 20 0;
#X connect 19 0 20 0;
#X connect 20 0 22 0;
#X connect 21 0 20 0;
#X connect 22 0 23 0;
#X connect 23 0 25 1;
#X connect 24 0 17 0;
#X connect 25 0 7 0;
#X connect 26 0 6 0;
#X connect 27 0 12 0;
#X connect 28 0 12 0;
#X connect 29 0 6 0;
