#N canvas 66 39 956 1003 12;
#X obj 107 290 osc~;
#X obj 108 329 *~;
#X obj 194 475 dac~;
#X msg 223 197 0.5 500;
#X text 224 175 Fade In;
#X text 156 176 Fade Out;
#X msg 169 199 0 300;
#X msg 22 204 100 1000;
#X text 12 185 Glide, f 8;
#X obj 105 226 vline~;
#X msg 233 142 0.5 200 0 \, 0.2 200 200 \, 0 500 1100;
#X obj 185 237 vline~;
#X obj 166 73 bng 15 250 50 0 empty empty empty 17 7 0 10 #fcfcfc #000000
#000000;
#X obj 158 8 tgl 15 0 empty empty empty 17 7 0 10 #fcfcfc #000000 #000000
0 1;
#X obj 163 31 metro 20;
#X msg 106 111 440 0 0 \, 500 10000 0;
#X obj 305 357 osc~;
#X obj 307 404 *~;
#X obj 303 293 vline~;
#X msg 419 302 0.5 500;
#X text 420 280 Fade In;
#X text 352 281 Fade Out;
#X msg 365 304 0 300;
#X obj 381 342 vline~;
#X msg 304 178 440 0 0 \, 400 10000 0;
#X obj 257 259 bng 15 250 50 0 empty empty empty 17 7 0 10 #fcfcfc
#000000 #000000;
#X obj 305 83 bng 15 250 50 0 empty empty empty 17 7 0 10 #fcfcfc #000000
#000000;
#X connect 0 0 1 0;
#X connect 1 0 2 0;
#X connect 1 0 2 1;
#X connect 3 0 11 0;
#X connect 6 0 11 0;
#X connect 7 0 9 0;
#X connect 9 0 0 0;
#X connect 10 0 11 0;
#X connect 11 0 1 1;
#X connect 12 0 15 0;
#X connect 12 0 24 0;
#X connect 13 0 14 0;
#X connect 14 0 12 0;
#X connect 15 0 9 0;
#X connect 16 0 17 0;
#X connect 17 0 2 0;
#X connect 17 0 2 1;
#X connect 18 0 16 0;
#X connect 19 0 23 0;
#X connect 22 0 23 0;
#X connect 23 0 17 1;
#X connect 24 0 18 0;
#X connect 25 0 6 0;
#X connect 25 0 22 0;
#X connect 26 0 3 0;
#X connect 26 0 19 0;
