#N canvas -9 0 956 1003 12;
#X obj 107 290 osc~;
#X obj 108 329 *~;
#X obj 108 387 dac~;
#X floatatom 107 258 5 0 0 0 - - - 0;
#X floatatom 161 275 5 0 1 0 - - - 0;
#X obj 107 224 line;
#X obj 185 237 line;
#X msg 250 197 0.5 500;
#X text 251 176 Fade In;
#X text 174 178 Fade Out;
#X msg 185 199 0 300;
#X msg 73 177 400 1000;
#X msg 22 204 100 1000;
#X text 69 153 Glide, f 8;
#X text 12 185 Glide, f 8;
#X connect 0 0 1 0;
#X connect 1 0 2 0;
#X connect 1 0 2 1;
#X connect 3 0 0 0;
#X connect 4 0 1 1;
#X connect 5 0 3 0;
#X connect 6 0 4 0;
#X connect 7 0 6 0;
#X connect 10 0 6 0;
#X connect 11 0 5 0;
#X connect 12 0 5 0;
