#N canvas -9 0 956 1003 12;
#X floatatom 107 106 5 0 0 0 - - - 0;
#X obj 59 65 key;
#X floatatom 58 105 5 0 0 0 - - - 0;
#X obj 107 65 keyup;
#X obj 163 65 keyname;
#X symbolatom 210 106 10 0 0 0 - - - 0;
#X obj 242 298 osc~;
#X msg 56 169 440;
#X obj 244 351 *~;
#X floatatom 268 324 5 0 1 0 - - - 0;
#X obj 247 404 dac~;
#X msg 94 167 660;
#X msg 138 165 880;
#X obj 57 138 select 97 115 100 102 103 104 106 107 108 59;
#X msg 172 165 1100;
#X msg 214 165 1320;
#X msg 253 166 1540;
#X msg 294 165 1760;
#X msg 334 166 1980;
#X msg 377 166 2200;
#X msg 420 166 2420;
#X msg 459 165 2640;
#X connect 0 0 13 0;
#X connect 1 0 2 0;
#X connect 2 0 13 0;
#X connect 3 0 0 0;
#X connect 4 1 5 0;
#X connect 6 0 8 0;
#X connect 7 0 6 0;
#X connect 8 0 10 0;
#X connect 8 0 10 1;
#X connect 9 0 8 1;
#X connect 11 0 6 0;
#X connect 12 0 6 0;
#X connect 13 0 7 0;
#X connect 13 1 11 0;
#X connect 13 2 12 0;
#X connect 13 3 14 0;
#X connect 13 4 15 0;
#X connect 13 5 16 0;
#X connect 13 6 17 0;
#X connect 13 7 18 0;
#X connect 13 8 19 0;
#X connect 13 9 20 0;
#X connect 13 10 21 0;
#X connect 14 0 6 0;
#X connect 15 0 6 0;
#X connect 16 0 6 0;
#X connect 17 0 6 0;
#X connect 18 0 6 0;
#X connect 19 0 6 0;
#X connect 20 0 6 0;
#X connect 21 0 6 0;
